<svg id="svg" version="1.1" xmlns="http://www.w3.org/2000/svg" xmlns:xlink="http://www.w3.org/1999/xlink" width="400" height="428.68525896414343" viewBox="0, 0, 400,428.68525896414343"><g id="svgg"><path id="path0" d="M206.972 0.375 C 178.771 3.049,153.747 25.956,147.976 54.382 L 147.005 59.163 147.108 130.776 L 147.211 202.389 214.940 135.777 L 282.669 69.165 282.783 65.004 C 282.950 58.892,280.435 46.818,277.583 40.040 C 266.451 13.584,237.741 -2.543,206.972 0.375 M60.558 146.484 C 42.864 149.331,30.102 155.705,19.121 167.177 C -15.905 203.769,-0.810 263.135,47.610 279.210 C 57.034 282.339,55.408 282.235,97.112 282.374 L 134.263 282.497 134.263 214.356 L 134.263 146.215 97.908 146.269 C 77.913 146.299,61.106 146.396,60.558 146.484 M147.012 296.873 L 147.012 369.242 148.623 376.155 C 161.219 430.221,229.379 446.942,266.117 404.980 C 275.946 393.753,282.869 376.306,282.869 362.759 L 282.869 360.358 214.940 292.430 L 147.012 224.503 147.012 296.873 " stroke="none" fill="#14bbac" fill-rule="evenodd"></path><path id="path1" d="M328.088 55.386 C 316.448 56.832,304.225 62.374,295.020 70.378 L 291.833 73.150 291.732 140.360 L 291.631 207.570 313.246 207.558 L 334.861 207.547 358.065 185.471 C 385.306 159.555,387.260 157.443,391.907 148.891 C 416.639 103.376,379.523 48.996,328.088 55.386 M219.722 148.008 L 160.460 207.570 219.871 207.570 L 279.283 207.570 279.283 148.008 C 279.283 115.249,279.216 88.446,279.133 88.446 C 279.051 88.446,252.316 115.249,219.722 148.008 M219.722 281.474 C 252.316 314.233,279.051 341.036,279.133 341.036 C 279.216 341.036,279.283 314.233,279.283 281.474 L 279.283 221.912 219.871 221.912 L 160.460 221.912 219.722 281.474 M291.644 288.944 L 291.655 355.976 294.655 358.566 C 326.958 386.452,375.212 376.661,393.810 338.446 C 404.619 316.234,401.055 288.581,384.976 269.901 C 383.269 267.918,371.297 256.309,358.371 244.104 L 334.870 221.912 313.252 221.912 L 291.633 221.912 291.644 288.944 " stroke="none" fill="#ccdc3c" fill-rule="evenodd"></path><path id="path2" d="" stroke="none" fill="#40c8b0" fill-rule="evenodd"></path><path id="path3" d="" stroke="none" fill="#40c8b0" fill-rule="evenodd"></path><path id="path4" d="" stroke="none" fill="#40c8b0" fill-rule="evenodd"></path></g></svg>